<svg width="20" height="20" viewBox="0 0 20 20" fill="none" xmlns="http://www.w3.org/2000/svg">
<g clip-path="url(#clip0_48_206)">
<path d="M18.3333 9.99996C18.3333 14.6023 14.6024 18.3333 10 18.3333M18.3333 9.99996C18.3333 5.39759 14.6024 1.66663 10 1.66663M18.3333 9.99996H1.66667M10 18.3333C5.39763 18.3333 1.66667 14.6023 1.66667 9.99996M10 18.3333C7.8602 16.0865 6.66667 13.1027 6.66667 9.99996C6.66667 6.89724 7.8602 3.91342 10 1.66663M10 18.3333C12.1398 16.0865 13.3333 13.1027 13.3333 9.99996C13.3333 6.89724 12.1398 3.91342 10 1.66663M1.66667 9.99996C1.66667 5.39759 5.39763 1.66663 10 1.66663" stroke="#3EC5E5" stroke-width="2" stroke-linecap="round" stroke-linejoin="round"/>
</g>
<defs>
<clipPath id="clip0_48_206">
<rect width="20" height="20" fill="white"/>
</clipPath>
</defs>
</svg>
